# xmcd
#
# Track frame offsets: 
#        150
#        8032
#        18297
#        34113
#        49698
#        63459
#        71875
#        94413
#        110770
#        130190
#        144764
#        167282
#
# Disc length: 2474 seconds
#
# Revision: 1
# Processed by: cddbd v1.5.2PL0 Copyright (c) Steve Scherf et al.
# Submitted via: ExactAudioCopy v0.95b4
#
DISCID=9c09a80c
DTITLE=Youngs, Jenny Owen - Batten the Hatches
DYEAR=2007
DGENRE=Americana, Roots Rock
TTITLE0=Porch Rail
TTITLE1=From Here
TTITLE2=F**k Was I
TTITLE3=Lightning Rod
TTITLE4=Voice on Tape
TTITLE5=P.S.
TTITLE6=Bricks
TTITLE7=Drinking Song
TTITLE8=Woodcut
TTITLE9=Coyote
TTITLE10=Keys out Lights On
TTITLE11=Woodcut [The Age of Rockets Remix]
EXTD=
EXTT0=
EXTT1=
EXTT2=
EXTT3=
EXTT4=
EXTT5=
EXTT6=
EXTT7=
EXTT8=
EXTT9=
EXTT10=
EXTT11=
PLAYORDER=
